<?xml version="1.0" encoding="UTF-8"?><svg id="_レイヤー_1" xmlns="http://www.w3.org/2000/svg" viewBox="0 0 238 239"><defs><style>.cls-1{fill:#fff;}</style></defs><circle cx="119.2" cy="119.66" r="119.24"/><path class="cls-1" d="M171.15,116.6l-11.62-11.62s0,0,0,0l-49.38-49.38c-.82-.82-1.94-1.28-3.1-1.28s-2.28,.46-3.1,1.28l-11.62,11.62c-1.71,1.71-1.71,4.49,0,6.2l46.28,46.28-46.28,46.28c-1.71,1.71-1.71,4.49,0,6.2l11.62,11.62c.82,.82,1.94,1.28,3.1,1.28s2.28-.46,3.1-1.28l49.38-49.38s0,0,0,0l11.62-11.62c1.71-1.71,1.71-4.49,0-6.2Z"/></svg>